<svg xmlns="http://www.w3.org/2000/svg" xmlns:xlink="http://www.w3.org/1999/xlink" width="163.428" height="175.505" viewBox="0 0 163.428 175.505">
  <defs>
    <clipPath id="clip-path">
      <path d="M0,0H163.428V-175.505H0Z"/>
    </clipPath>
  </defs>
  <g transform="translate(0 175.505)" >
    <g  clip-path="url(#clip-path)">
      <g  transform="translate(163.425 -88.134)">
        <path d="M0,0Q0-34.893,0-69.786c0-10.112-6.663-17.534-16.189-17.548q-65.478-.095-130.956.058c-9.293.023-16.2,7.046-16.215,16.512q-.127,71.639,0,143.278c.016,8.3,7.566,15.542,15.956,15.555q65.478.1,130.956.04C-7.1,88.1-.026,80.575-.026,71.022q0-35.511,0-71.022ZM-40.51-45.719l-.084.035c6.148-2.727,12.322-5.6,19.257-4.825,4.155.464,6.911,1.631,6.882,6.67-.178,31.4-.144,62.794-.178,94.191-.008,7.3-.079,14.6.022,21.9.039,2.794-1.315,3.545-3.764,3.544q-63.041-.03-126.081.011c-3.116,0-4.614-1.035-4.607-4.5q.128-56.828,0-113.654c-.01-3.79,1.878-5.946,4.928-6.887a15.744,15.744,0,0,1,8.042-.646c8.249,2.077,16.631,4.052,24.457,7.305,11.048,4.592,20.755,4.079,29.593-4.444a11.874,11.874,0,0,1,1.681-1.111c7.955,8.316,17.531,9.765,28.081,6.515,3.966-1.222,7.847-2.727,11.767-4.1M-14.7-64.13C-23.409-67.237-31.4-65-39.335-62.152c-7.18,2.582-14.279,5.426-21.55,7.71-5.1,1.6-9.245.132-10.085-4.543-1.349-7.5-6.019-7.149-11.335-6.742a19.777,19.777,0,0,1-3.666,0c-2.27-.252-3.2.57-3.444,2.973-.556,5.479-4.121,9.127-9.592,8.56-4.945-.512-9.842-2.274-14.565-4.023-8.19-3.035-16.094-7.191-25.125-6.686-3.34.186-6.625,1.38-10.077,2.145-.094-.756-.241-1.556-.285-2.36-.415-7.534-.337-7.616,7.067-7.617q59.18,0,118.357,0a33.846,33.846,0,0,1,6.4.13,4.122,4.122,0,0,1,2.75,2.509c.371,1.8-.085,3.775-.212,5.973"/>
      </g>
      <g  transform="translate(42.698 -16.202)">
        <path d="M0,0C3.522,0,7.359,0,11.2,0,18.951,0,26.7.077,34.456-.074,35.63-.1,37.409-.867,37.854-1.8c6.392-13.431,11.953-24.951,18.2-38.453a11.333,11.333,0,0,0,.4-1.677h-3.7C38.768-41.924,24.79-42,10.816-41.8c-1.693.025-3.646,1.236-5,2.446C.81-34.87.15-29.231,1.661-22.878A34.379,34.379,0,0,1,2.874-11.593C2.408-7.176,1.332-4.892,0,0"/>
      </g>
      <g  transform="translate(46.673 -111.48)">
        <path d="M0,0C8.225,15.888,16.029,30.964,24.437,47.2c-4.965-4.077-8.906-7.49-13.056-10.62A9.37,9.37,0,0,0,6.516,34.8c-4.56-.24-9.139-.083-14.451-.083,3.9,5.782,7.423,11.087,11.077,16.3.33.471,1.489.481,2.263.485,6.93.035,13.862.121,20.786-.077a4.873,4.873,0,0,0,3.473-2.094c2.877-4.951,5.605-10.007,8.048-15.188a5.568,5.568,0,0,0-.345-4.6Q28.28,15.653,18.75,2.067A5.326,5.326,0,0,0,15.121.092C10.366-.138,5.594,0,0,0"/>
      </g>
      <g  transform="translate(74.75 -54.181)">
        <path d="M0,0C7.426,0,13.807,2.133,21.084,1.916c.838-.026,1.893-1.649,2.4-2.742,5.4-11.71,14.084-31.335,19.411-43.078,1.934-4.264,3.847-8.537,6.028-13.379-5.655,0-10.795-.06-15.93.077-.64.017-1.435.973-1.85,1.678C21.629-39.388,9.691-17.392.227-1.224A5.02,5.02,0,0,0,0,0"/>
      </g>
      <g  transform="translate(122.915 -130.956)">
        <path d="M0,0C-8.07,3.652-9.62,11.4-15.24,17.482c5.895,0,10.938.031,15.98-.046a2.231,2.231,0,0,0,1.55-1.018C5.137,11.087,7.9,5.724,11.117-.447,6.895-.262,3.394-.109-.1.037-.084.03,0,0,0,0"/>
      </g>
      <g  transform="translate(62.647 -113.5)">
        <path d="M0,0C-3.341-4.988-6.225-9.548-9.385-13.9c-1.517-2.093-6.884-2.27-9.072-.4-2.345,2.005-2.85,4.229-1.782,7.588C-18.4-.926-15.079.928-9.39.075-6.528-.354-3.551,0,0,0"/>
      </g>
    </g>
  </g>
</svg>
